<?xml version="1.0" encoding="UTF-8"?>
<svg viewBox="0 0 126 46" version="1.1" preserveAspectRatio="align" xmlns="http://www.w3.org/2000/svg" xmlns:xlink="http://www.w3.org/1999/xlink">
    <desc>Created with Sketch.</desc>
    <defs></defs>
    <g id="Page-1" stroke="none" stroke-width="1" fill="none" fill-rule="evenodd">
        <g id="appStoreIcon" fill-rule="nonzero" fill="#D2D6DA">
            <path d="M112.138132,12.7182203 C111.305995,12.7182203 110.954925,13.4752712 110.900435,14.0233729 L113.244275,14.0233729 C113.255951,13.5298475 113.035657,12.7182203 112.138132,12.7182203 Z M59.7423009,15.6466271 C59.7423009,16.173678 60.0824729,16.4153729 60.5090501,16.4153729 C61.0570618,16.4153729 61.4400472,16.0645254 61.5716012,15.6801525 C61.604295,15.5811356 61.604295,15.4821186 61.604295,15.3831017 L61.604295,14.6494407 C60.651502,14.6377458 59.7423009,14.835 59.7423009,15.6466271 Z M85.6662105,12.7727966 C84.7134175,12.7727966 84.3296536,13.7052712 84.3296536,14.5933051 C84.3296536,15.6255763 84.844193,16.4044576 85.6553125,16.4044576 C86.4220618,16.4044576 86.9583971,15.658322 86.9583971,14.5722542 C86.9583971,13.7380169 86.5863096,12.7727966 85.6662105,12.7727966 Z M76.6154554,12.7182203 C75.7833184,12.7182203 75.4330268,13.4752712 75.3777586,14.0233729 L77.7215983,14.0233729 C77.7324962,13.5298475 77.5137586,12.7182203 76.6154554,12.7182203 Z M66.918607,12.8492034 C66.3713738,12.8492034 65.8677324,13.2444915 65.7252805,13.8370339 C65.7027061,13.9360508 65.6801318,14.0561186 65.6801318,14.1878814 L65.6801318,15.0548644 C65.6801318,15.1640169 65.6918082,15.2739492 65.7136041,15.3729661 C65.856056,15.9210678 66.3270035,16.3163559 66.907709,16.3163559 C67.7515224,16.3163559 68.2660618,15.6466271 68.2660618,14.561339 C68.2660618,13.6179492 67.8161318,12.8492034 66.918607,12.8492034 Z M114.481193,30.2964576 L107.576557,30.2964576 C107.603802,31.3193729 107.937747,32.0990339 108.57917,32.639339 C109.159875,33.1242881 109.911834,33.3659831 110.835826,33.3659831 C111.861012,33.3659831 112.788896,33.2030339 113.62726,32.871678 L113.990006,34.4738814 C113.013082,34.9042542 111.853228,35.1132034 110.514336,35.1132034 C108.912336,35.1132034 107.651286,34.6422881 106.735858,33.6965593 C105.820429,32.7508305 105.358044,31.4807627 105.358044,29.8886949 C105.358044,28.3215763 105.786957,27.022661 106.636998,25.9794746 C107.536079,24.8707966 108.743417,24.3172373 110.260569,24.3172373 C111.756703,24.3172373 112.883864,24.8707966 113.648278,25.9794746 C114.257785,26.8643898 114.564485,27.9535763 114.564485,29.2485932 C114.564485,29.6586949 114.534904,30.0072034 114.481193,30.2964576 Z M104.983622,14.0561186 L104.983622,17.2597458 L103.636945,17.2597458 L103.636945,9.4709322 L104.983622,9.4709322 L104.983622,12.6410339 L105.005417,12.6410339 C105.169665,12.3892034 105.400079,12.1810339 105.673307,12.0383559 C105.947313,11.8839831 106.26491,11.796661 106.605082,11.796661 C107.514283,11.796661 108.467076,12.399339 108.467076,14.1114746 L108.467076,17.2597458 L107.119622,17.2597458 L107.119622,14.2541525 C107.119622,13.4861864 106.834718,12.8936441 106.089764,12.8936441 C105.564327,12.8936441 105.191461,13.2444915 105.03889,13.6506949 C104.99452,13.7715424 104.983622,13.9134407 104.983622,14.0561186 Z M104.634108,26.5774746 C104.407587,26.5369322 104.163939,26.519 103.910173,26.519 C103.10061,26.519 102.477091,26.8254068 102.034945,27.4351017 C101.650403,27.9769661 101.459689,28.6505932 101.459689,29.4817119 L101.459689,34.9229661 L99.1586624,34.9229661 L99.1586624,27.8132373 C99.1586624,26.6250339 99.1384233,25.5358475 99.0971668,24.5511356 L101.099278,24.5511356 L101.185683,26.5369322 L101.248735,26.5369322 C101.48849,25.8562881 101.870697,25.3066271 102.39847,24.8965254 C102.910674,24.5230678 103.46647,24.3429661 104.062744,24.3429661 C104.273697,24.3429661 104.467525,24.354661 104.634108,24.3819492 L104.634108,26.5774746 Z M98.7274146,11.9175085 L99.4832659,11.9175085 L99.4832659,10.9187627 L100.808925,10.5453051 L100.808925,11.9175085 L102.090213,11.9175085 L102.090213,12.9263898 L100.808925,12.9263898 L100.808925,15.2848644 C100.808925,15.943678 100.984071,16.2726949 101.49861,16.2726949 C101.739922,16.2726949 101.871476,16.261 102.024826,16.217339 L102.046622,17.2371356 C101.848901,17.314322 101.487712,17.3805932 101.072033,17.3805932 C100.568391,17.3805932 100.162053,17.2160847 99.9106216,16.9416441 C99.6148198,16.6344576 99.4832659,16.1409322 99.4832659,15.4384576 L99.4832659,12.9263898 L98.7274146,12.9263898 L98.7274146,11.9175085 Z M96.3501026,33.5827288 C95.3949743,34.6321525 94.1308111,35.1576441 92.5583913,35.1576441 C91.0357907,35.1576441 89.8206682,34.6539831 88.9200297,33.6435424 C88.0193913,32.6354407 87.5694612,31.3567966 87.5694612,29.8224237 C87.5694612,28.216322 88.0334029,26.8986949 88.9636216,25.8757797 C89.8961755,24.8481864 91.1455487,24.3421864 92.7226391,24.3421864 C94.2483534,24.3421864 95.4681464,24.8427288 96.3913592,25.8578475 C97.2694233,26.8332034 97.7107907,28.1032712 97.7107907,29.6532373 C97.7107907,31.2515424 97.2593038,32.5543559 96.3501026,33.5827288 Z M85.6117207,17.3805932 C84.110916,17.3805932 82.938607,16.3491017 82.938607,14.6268305 C82.938607,12.8718136 84.0891201,11.796661 85.6989044,11.796661 C87.2868927,11.796661 88.3494437,12.9154746 88.3494437,14.5387288 C88.3494437,16.5026949 86.969295,17.3805932 85.6117207,17.3805932 Z M86.9093563,26.2780847 L84.3693534,26.2780847 L84.3693534,31.3193729 C84.3693534,32.5987966 84.8200618,33.2334407 85.7160297,33.2334407 C86.1278169,33.2334407 86.4656536,33.2030339 86.7373242,33.1336441 L86.802712,34.8793051 C86.3473329,35.0500508 85.7526157,35.1358136 85.0131114,35.1358136 C84.1085808,35.1358136 83.3932076,34.8621525 82.8841172,34.3039153 C82.368021,33.7519153 82.1134758,32.8178814 82.1134758,31.5096102 L82.1134758,26.2780847 L80.6017732,26.2780847 L80.6017732,24.5511356 L82.1134758,24.5511356 L82.1134758,22.652661 L84.3693534,21.969678 L84.3693534,24.5511356 L86.9093563,24.5511356 L86.9093563,26.2780847 Z M78.7973825,33.876661 C77.8570443,34.7171356 76.5547382,35.1342542 74.8842367,35.1342542 C73.3351697,35.1342542 72.0974729,34.8340847 71.1618052,34.2399831 L71.6965837,32.319678 C72.7046449,32.9137797 73.8115662,33.2155085 75.0165691,33.2155085 C75.886849,33.2155085 76.5594087,33.0174746 77.0428111,32.6292034 C77.5230997,32.2393729 77.7651901,31.717 77.7651901,31.0550678 C77.7651901,30.4788983 77.5659131,29.9877119 77.1704729,29.5877458 C76.7688052,29.189339 76.1141493,28.8221186 75.1893796,28.4782881 C72.6781784,27.5419153 71.4194641,26.1681525 71.4194641,24.3624576 C71.4194641,23.1804915 71.8584962,22.2113729 72.7474583,21.4574407 C73.635642,20.7058475 74.8110647,20.3277119 76.2760618,20.3277119 C77.5814816,20.3277119 78.6689423,20.5569322 79.5368869,21.0091356 L78.9561813,22.887339 C78.1466187,22.4476102 77.2265195,22.2246271 76.2005545,22.2246271 C75.389435,22.2246271 74.7534612,22.4312373 74.2957469,22.8202881 C73.9135399,23.1804915 73.7204904,23.6155424 73.7204904,24.1262203 C73.7204904,24.6906949 73.9415633,25.1623898 74.3805953,25.5374068 C74.7651376,25.877339 75.4618286,26.2461186 76.4667761,26.6429661 C77.7068082,27.1372712 78.6128956,27.7243559 79.1974933,28.3948644 C79.7781988,29.0638136 80.0708869,29.8941525 80.0708869,30.889 C80.0708869,32.1130678 79.6435312,33.1118136 78.7973825,33.876661 Z M67.2144087,17.3805932 C66.5239452,17.3805932 65.9105458,17.1178475 65.5275603,16.4590339 L65.5057644,16.4590339 L65.4403767,17.2597458 L64.2898636,17.2597458 C64.3124379,16.8972034 64.3342338,16.3054407 64.3342338,15.7565593 L64.3342338,9.4709322 L65.6801318,9.4709322 L65.6801318,12.6519492 L65.7027061,12.6519492 C66.0312017,12.1365932 66.6119073,11.796661 67.4113504,11.796661 C68.7152134,11.796661 69.6454321,12.8827288 69.6345341,14.5059831 C69.6345341,16.4262881 68.4194117,17.3805932 67.2144087,17.3805932 Z M65.6342047,33.7955763 C64.7763796,34.702322 63.714607,35.1576441 62.441881,35.1576441 C61.0710735,35.1576441 60.086365,34.6680169 59.4877557,33.6833051 L59.4877557,39.1300169 L57.185951,39.1300169 L57.185951,27.9598136 C57.185951,26.8503559 57.1563708,25.7159492 57.1011026,24.5511356 L59.1203388,24.5511356 L59.2534496,26.1938814 L59.2923708,26.1938814 C60.0645691,24.9604576 61.2259802,24.3421864 62.7882805,24.3421864 C64.0104087,24.3421864 65.0293679,24.821678 65.8459364,25.7923559 C66.6648402,26.7575763 67.0719569,28.0338814 67.0719569,29.6111356 C67.0719569,31.3809661 66.5940035,32.7695424 65.6342047,33.7955763 Z M55.3060531,17.2597458 L56.651951,17.2597458 L56.651951,9.47171186 L55.3060531,9.47171186 L55.3060531,17.2597458 Z M54.2575137,33.7955763 C53.4020239,34.702322 52.3355808,35.1576441 51.0659685,35.1576441 C49.6912688,35.1576441 48.7081172,34.6680169 48.1095079,33.6833051 L48.1095079,39.1300169 L45.8100385,39.1300169 L45.8100385,27.9598136 C45.8100385,26.8503559 45.7804583,25.7159492 45.7220764,24.5511356 L47.7459831,24.5511356 L47.8728665,26.1938814 L47.9133446,26.1938814 C48.683986,24.9604576 49.8477324,24.3421864 51.4115895,24.3421864 C52.6337178,24.3421864 53.6495633,24.821678 54.4715808,25.7923559 C55.285814,26.7575763 55.6952659,28.0338814 55.6952659,29.6111356 C55.6952659,31.3809661 55.2173125,32.7695424 54.2575137,33.7955763 Z M45.2472367,15.7893051 C45.2472367,14.4514068 46.4413417,13.7598475 48.4130939,13.7715424 L48.4130939,13.6834407 C48.4130939,13.3325932 48.2698636,12.7509661 47.3279685,12.7509661 C46.8017528,12.7509661 46.255298,12.9154746 45.89333,13.1462542 L45.6310006,12.2683559 C46.0241055,12.026661 46.7145691,11.796661 47.5583825,11.796661 C49.2662484,11.796661 49.7597703,12.8827288 49.7597703,14.0561186 L49.7597703,15.9764237 C49.7597703,16.4590339 49.7815662,16.9307288 49.8477324,17.2597458 L48.6310531,17.2597458 L48.5329714,16.6672034 L48.5002776,16.6672034 C48.1826799,17.084322 47.6237703,17.3805932 46.9231872,17.3805932 C45.8497382,17.3805932 45.2472367,16.6017119 45.2472367,15.7893051 Z M42.4744845,17.2597458 L41.1488257,17.2597458 L39.1661755,11.9175085 L40.6233883,11.9175085 L41.4874408,14.6268305 C41.6415691,15.0985254 41.7505487,15.5265593 41.8494087,15.9655085 L41.882881,15.9655085 C41.9809627,15.5265593 42.1016187,15.108661 42.2440706,14.6268305 L43.0987819,11.9175085 L44.5116245,11.9175085 L42.4744845,17.2597458 Z M41.9513825,34.9229661 L40.6101551,30.7011017 L35.9427149,30.7011017 L34.6629831,34.9229661 L32.2786653,34.9229661 L36.8986216,20.5397797 L39.7570006,20.5397797 L44.4034233,34.9229661 L41.9513825,34.9229661 Z M25.690849,34.382661 C25.690849,35.6854746 24.6306332,36.7411356 23.3306624,36.7411356 L13.215021,36.7411356 C11.9134933,36.7411356 10.8532776,35.6854746 10.8532776,34.382661 L10.8532776,11.8683898 C10.8532776,10.5655763 11.9134933,9.50679661 13.215021,9.50679661 L23.3306624,9.50679661 C24.6306332,9.50679661 25.690849,10.5655763 25.690849,11.8683898 L25.690849,34.382661 Z M34.6622047,9.86544068 L36.3817469,9.86544068 L38.7800764,17.2597458 L37.323642,17.2597458 L36.6557528,15.1640169 L34.3220327,15.1640169 L33.6868373,17.2597458 L32.2957907,17.2597458 L34.6622047,9.86544068 Z M51.8436157,17.2597458 L53.1895137,17.2597458 L53.1895137,11.9175085 L51.8436157,11.9175085 L51.8436157,17.2597458 Z M52.5224029,9.69001695 C52.9824525,9.69001695 53.2673563,10.0088983 53.2782542,10.4252373 C53.2782542,10.8197458 52.9824525,11.1495424 52.5107265,11.1495424 C52.0615749,11.1495424 51.7665516,10.8197458 51.7665516,10.4252373 C51.7665516,10.0088983 52.0732513,9.69001695 52.5224029,9.69001695 Z M60.4872542,12.7509661 C59.9618169,12.7509661 59.4145837,12.9154746 59.0533942,13.1462542 L58.7902863,12.2683559 C59.1841697,12.026661 59.8738548,11.796661 60.7168898,11.796661 C62.4263125,11.796661 62.919056,12.8827288 62.919056,14.0561186 L62.919056,15.9764237 C62.919056,16.4590339 62.9408519,16.9307288 63.0062397,17.2597458 L61.7903388,17.2597458 L61.6922571,16.6672034 L61.6595633,16.6672034 C61.3419656,17.084322 60.783056,17.3805932 60.0824729,17.3805932 C59.0082455,17.3805932 58.4065224,16.6017119 58.4065224,15.7893051 C58.4065224,14.4514068 59.599849,13.7598475 61.5716012,13.7715424 L61.5716012,13.6834407 C61.5716012,13.3325932 61.4283708,12.7509661 60.4872542,12.7509661 Z M71.1711464,17.2589661 L72.5170443,17.2589661 L72.5170443,9.4709322 L71.1711464,9.4709322 L71.1711464,17.2589661 Z M76.6925195,11.796661 C78.4221813,11.796661 78.9927673,13.222661 78.9927673,14.3968305 C78.9927673,14.6494407 78.9709714,14.8466949 78.9483971,14.9667627 L75.3777586,14.9667627 C75.4104525,15.9319831 76.1554058,16.3491017 77.0210152,16.3491017 C77.6445341,16.3491017 78.0827878,16.2508644 78.4992455,16.1074068 L78.6961872,17.0297458 C78.2361376,17.2262203 77.6017207,17.3688983 76.834193,17.3688983 C75.1045312,17.3688983 74.085572,16.3054407 74.085572,14.6712712 C74.085572,13.1891356 74.9838752,11.796661 76.6925195,11.796661 Z M90.838849,11.9175085 L90.9042367,12.7182203 L90.937709,12.7182203 C91.1774641,12.3011017 91.7581697,11.796661 92.6455749,11.796661 C93.576572,11.796661 94.5410414,12.399339 94.5410414,14.0888644 L94.5410414,17.2597458 L93.1935866,17.2597458 L93.1935866,14.2424576 C93.1935866,13.4752712 92.9086828,12.8936441 92.1746274,12.8936441 C91.6382921,12.8936441 91.2662047,13.2772373 91.1229743,13.6834407 C91.0786041,13.7933729 91.0575866,13.9578814 91.0575866,14.1114746 L91.0575866,17.2597458 L89.7101318,17.2597458 L89.7101318,13.5080169 C89.7101318,12.8936441 89.6883359,12.3782881 89.6665399,11.9175085 L90.838849,11.9175085 Z M112.215196,11.796661 C113.944858,11.796661 114.515444,13.222661 114.515444,14.3968305 C114.515444,14.6494407 114.492869,14.8466949 114.471073,14.9667627 L110.900435,14.9667627 C110.933129,15.9319831 111.678082,16.3491017 112.543692,16.3491017 C113.16721,16.3491017 113.606243,16.2508644 114.021922,16.1074068 L114.218864,17.0297458 C113.758814,17.2262203 113.124397,17.3688983 112.356869,17.3688983 C110.627208,17.3688983 109.608248,16.3054407 109.608248,14.6712712 C109.608248,13.1891356 110.505773,11.796661 112.215196,11.796661 Z M35.8563096,12.3229322 C35.7130793,11.8730678 35.5932017,11.3686271 35.4834437,10.9413729 L35.4608694,10.9413729 C35.3518898,11.3686271 35.2312338,11.8839831 35.1105778,12.3229322 L34.5415487,14.1442203 L36.4362367,14.1442203 L35.8563096,12.3229322 Z M48.4130939,15.6801525 C48.4450093,15.5811356 48.4450093,15.4821186 48.4450093,15.3831017 L48.4450093,14.6494407 C47.4922163,14.6377458 46.5837936,14.835 46.5837936,15.6466271 C46.5837936,16.173678 46.9231872,16.4153729 47.3505429,16.4153729 C47.8977761,16.4153729 48.2807615,16.0645254 48.4130939,15.6801525 Z M110.090094,25.9155424 C109.338913,25.9155424 108.728627,26.2367627 108.258458,26.8589322 C107.874694,27.3547966 107.645837,27.9535763 107.576557,28.6474746 L112.370103,28.6474746 C112.381779,27.9668305 112.236213,27.3789661 111.924843,26.8776441 C111.524732,26.240661 110.91289,25.9155424 110.090094,25.9155424 Z M38.2647586,22.4616441 L38.2242805,22.4616441 C38.0794933,23.0728983 37.8553067,23.9749661 37.5400443,25.1717458 L36.3467178,28.9281525 L40.2022601,28.9281525 L38.9925866,25.1717458 C38.8618111,24.7858136 38.6181638,23.8814068 38.2647586,22.4616441 Z M62.0433271,26.1712712 C61.4727411,26.1712712 60.9636507,26.3583898 60.499709,26.7357458 C60.0381026,27.1177797 59.735295,27.6120847 59.5920647,28.2241186 C59.521228,28.5102542 59.4877557,28.7433729 59.4877557,28.9289322 L59.4877557,30.6558814 C59.4877557,31.4113729 59.715056,32.0491356 60.1789977,32.5683898 C60.6398257,33.0829661 61.2407703,33.3441525 61.9763825,33.3441525 C62.8474408,33.3441525 63.520779,33.0120169 64.0041813,32.3415085 C64.4883621,31.673339 64.7312309,30.7915424 64.7312309,29.6922203 C64.7312309,28.6848983 64.5023738,27.8514407 64.04933,27.1988644 C63.5480239,26.519 62.8801347,26.1712712 62.0433271,26.1712712 Z M92.6377907,26.0278136 C91.7176915,26.0278136 91.0132163,26.4379153 90.5329277,27.2612373 C90.11647,27.9395424 89.9125224,28.7675424 89.9125224,29.7475763 C89.9125224,30.7011017 90.11647,31.5150678 90.5329277,32.1949322 C91.0256711,33.0174746 91.7215837,33.4275763 92.6214437,33.4275763 C93.4963942,33.4275763 94.1876362,33.0120169 94.6819364,32.1692034 C95.1116274,31.4807627 95.324916,30.6558814 95.324916,29.7070339 C95.324916,28.7581864 95.1201901,27.9395424 94.7099598,27.2612373 C94.22033,26.4379153 93.534537,26.0278136 92.6377907,26.0278136 Z M50.662744,26.1712712 C50.0960501,26.1712712 49.5838461,26.3583898 49.1206828,26.7357458 C48.6575195,27.1177797 48.3570472,27.6120847 48.2145953,28.2241186 C48.144537,28.5102542 48.1095079,28.7433729 48.1095079,28.9289322 L48.1095079,30.6558814 C48.1095079,31.4113729 48.3360297,32.0491356 48.8007499,32.5683898 C49.2615778,33.0829661 49.8625224,33.3441525 50.5996915,33.3441525 C51.4645224,33.3441525 52.144088,33.0120169 52.6259335,32.3415085 C53.1085574,31.673339 53.3483125,30.7915424 53.3483125,29.6922203 C53.3483125,28.6848983 53.1233475,27.8514407 52.6687469,27.1988644 C52.1689977,26.519 51.5018869,26.1712712 50.662744,26.1712712 Z M12.287916,31.9937797 L24.2569889,31.9937797 L24.2569889,14.2635085 L12.287916,14.2635085 L12.287916,31.9937797 Z M18.2708956,33.0400847 C17.5998927,33.0400847 17.0526595,33.5905254 17.0526595,34.2649322 C17.0526595,34.9377797 17.5998927,35.4858814 18.2708956,35.4858814 C18.9450122,35.4858814 19.4906886,34.9377797 19.4906886,34.2649322 C19.4906886,33.5905254 18.9450122,33.0400847 18.2708956,33.0400847 Z M17.0985866,12.4546949 L19.4439831,12.4546949 C19.5973329,12.4546949 19.7226595,12.3283898 19.7226595,12.1810339 C19.7226595,12.0251017 19.5973329,11.8995763 19.4439831,11.8995763 L17.0985866,11.8995763 C16.9499073,11.8995763 16.8222455,12.0251017 16.8222455,12.1810339 C16.8222455,12.3283898 16.9499073,12.4546949 17.0985866,12.4546949 Z" id="Shape"></path>
            <path d="M6.0122484,2.33898305 C3.55553703,2.33898305 1.55653994,4.34115254 1.55653994,6.80176271 L1.55653994,39.4407119 C1.55653994,41.8974237 3.55553703,43.8964746 6.0122484,43.8964746 L119.406292,43.8964746 C121.863003,43.8964746 123.862779,41.8974237 123.862779,39.4407119 L123.862779,6.80176271 C123.862779,4.34115254 121.863003,2.33898305 119.406292,2.33898305 L6.0122484,2.33898305 Z M119.406292,45.4557966 L6.0122484,45.4557966 C2.69693353,45.4557966 -0.000311370262,42.7573898 -0.000311370262,39.4407119 L-0.000311370262,6.80176271 C-0.000311370262,3.48118644 2.69693353,0.779661017 6.0122484,0.779661017 L119.406292,0.779661017 C122.722385,0.779661017 125.41963,3.48118644 125.41963,6.80176271 L125.41963,39.4407119 C125.41963,42.7573898 122.722385,45.4557966 119.406292,45.4557966 L119.406292,45.4557966 Z" id="Shape"></path>
        </g>
    </g>
</svg>
