<?xml version="1.0" encoding="UTF-8"?>
<svg viewBox="0 0 134 45" version="1.1" preserveAspectRatio="align" xmlns="http://www.w3.org/2000/svg" xmlns:xlink="http://www.w3.org/1999/xlink">
    <desc>Created with Sketch.</desc>
    <defs></defs>
    <g id="Page-1" stroke="none" stroke-width="1" fill="none" fill-rule="evenodd">
        <g id="google-play-icon" fill="#d2d6da">
            <path d="M7.14020437,1.55932203 C4.36511691,1.55932203 2.10612566,3.82111864 2.10612566,6.60138983 L2.10612566,38.0357627 C2.10612566,40.8160339 4.36511691,43.0778305 7.14020437,43.0778305 L126.999852,43.0778305 C129.774939,43.0778305 132.032373,40.8160339 132.032373,38.0357627 L132.032373,6.60138983 C132.032373,3.82111864 129.774939,1.55932203 126.999852,1.55932203 L7.14020437,1.55932203 Z M126.999852,44.6371525 L7.14020437,44.6371525 C3.50573499,44.6371525 0.549274344,41.676 0.549274344,38.0357627 L0.549274344,6.60138983 C0.549274344,2.96115254 3.50573499,0 7.14020437,0 L126.999852,0 C130.633543,0 133.589225,2.96115254 133.589225,6.60138983 L133.589225,38.0357627 C133.589225,41.676 130.633543,44.6371525 126.999852,44.6371525 L126.999852,44.6371525 Z" id="Fill-6"></path>
            <path d="M43.4836528,11.4660847 C43.1691688,10.5148983 43.0119268,10.000322 43.0119268,9.92313559 L42.9675566,9.92313559 C42.9675566,9.99486441 42.8048656,10.5094407 42.4787052,11.4660847 L43.4836528,11.4660847 Z M44.7602708,13.0285254 L43.8759793,13.0285254 C43.8759793,12.907678 43.7919093,12.5622881 43.6253262,11.9946949 L42.3487082,11.9946949 C42.1758977,12.5537119 42.0894924,12.898322 42.0894924,13.0285254 L41.2581338,13.0285254 C41.2581338,12.9567966 41.4729793,12.3673729 41.9034487,11.2586949 C42.3323612,10.1507966 42.5479851,9.54032203 42.5479851,9.42805085 L43.5918539,9.42805085 C43.5918539,9.53330508 43.7864603,10.1344237 44.1756732,11.2329661 C44.564886,12.3307288 44.7602708,12.9295085 44.7602708,13.0285254 L44.7602708,13.0285254 Z" id="Fill-8"></path>
            <path d="M48.320712,13.0288373 L47.6380327,13.0288373 C47.6380327,12.9532102 47.3850443,12.5540237 46.8782892,11.831278 C46.3489598,11.0695492 46.0469306,10.5487356 45.9729802,10.2688373 L45.9293883,10.2688373 C45.974537,10.6727017 45.9978898,11.0375831 45.9978898,11.364261 C45.9978898,11.8195831 46.0103446,12.3747017 46.0360327,13.0288373 L45.3572455,13.0288373 C45.3852688,12.4573458 45.398502,11.8297186 45.398502,11.1451763 C45.398502,10.4723288 45.3852688,9.90005763 45.3572455,9.42758305 L46.1777061,9.42758305 C46.1777061,9.52582034 46.4050064,9.91565085 46.859607,10.5978542 C47.3437878,11.322939 47.6216857,11.8141254 47.6933009,12.0721932 L47.7345574,12.0721932 C47.6901872,11.6613119 47.6683913,11.2917525 47.6683913,10.9658542 C47.6683913,10.4660915 47.6559364,9.95307458 47.62947,9.42758305 L48.320712,9.42758305 C48.2942455,9.88524407 48.2817907,10.4575153 48.2817907,11.1451763 C48.2817907,11.8390746 48.2942455,12.4667017 48.320712,13.0288373" id="Fill-10"></path>
            <path d="M51.5690044,11.2228305 C51.5690044,10.8688644 51.4654738,10.5710339 51.2599694,10.3285593 C51.0536866,10.0860847 50.7392026,9.96445763 50.3157391,9.96445763 C50.2363397,9.96445763 50.1273601,9.97225424 49.9895787,9.98940678 C50.0074825,10.3581864 50.0168236,10.743339 50.0168236,11.1456441 C50.0168236,11.5861525 50.0261647,12.0235424 50.0448469,12.4562542 C50.1639461,12.4804237 50.284602,12.4921186 50.4037012,12.4921186 C50.7999198,12.4921186 51.0926079,12.3697119 51.2833222,12.123339 C51.4740364,11.8769661 51.5690044,11.5767966 51.5690044,11.2228305 M52.3232988,11.104322 C52.3232988,11.6282542 52.1551589,12.0843559 51.8204359,12.4757458 C51.4857128,12.8663559 51.0155437,13.0620508 50.4122638,13.0620508 C50.1390364,13.0620508 49.7638353,13.0511356 49.2851035,13.0285254 C49.3092347,12.4726271 49.3209111,11.8442203 49.3209111,11.1456441 C49.3209111,10.4743559 49.3092347,9.90208475 49.2851035,9.42805085 L49.7685058,9.42805085 C49.8479052,9.42805085 49.9654475,9.4249322 50.1226895,9.41947458 C50.2783746,9.41401695 50.3811268,9.41089831 50.4286108,9.41089831 C51.0933863,9.41089831 51.5752318,9.5769661 51.8741472,9.90910169 C52.1730627,10.2412373 52.3232988,10.6388644 52.3232988,11.104322" id="Fill-12"></path>
            <path d="M54.9776525,10.4842576 C54.9776525,10.1178169 54.7417895,9.93381695 54.270842,9.93381695 C54.0980315,9.93381695 53.9454601,9.94707119 53.8123493,9.9728 C53.8325883,10.2581559 53.8427079,10.6308339 53.8427079,11.0900542 C53.9439032,11.0939525 54.02953,11.0955119 54.0995883,11.0955119 C54.6849644,11.0955119 54.9776525,10.8920203 54.9776525,10.4842576 M56.0129586,13.0290712 L55.1956117,13.0290712 C54.982323,12.3764949 54.8188536,11.9734102 54.7044251,11.8198169 C54.5899965,11.6677831 54.406288,11.5905966 54.1517429,11.5905966 C54.045877,11.5905966 53.9431248,11.5913763 53.8458216,11.5937153 C53.8458216,12.0677492 53.8543843,12.5456814 53.8707312,13.0290712 L53.1032035,13.0290712 C53.1265563,12.4723932 53.1390111,11.8439864 53.1390111,11.1454102 C53.1390111,10.474122 53.1265563,9.90185085 53.1032035,9.42781695 L53.5803784,9.42781695 C53.6356466,9.42781695 53.7516321,9.42547797 53.9267778,9.41924068 C54.102702,9.41378305 54.265393,9.41144407 54.4140723,9.41144407 C55.2594426,9.41144407 55.6821277,9.70069831 55.6821277,10.2799864 C55.6821277,10.7392068 55.4408157,11.0588678 54.9589703,11.2397492 L54.9589703,11.2810712 C55.1442356,11.3325288 55.307705,11.4775458 55.4478216,11.7169017 C55.5871598,11.955478 55.7755388,12.3928678 56.0129586,13.0290712" id="Fill-14"></path>
            <path d="M59.2095636,11.2422441 C59.2095636,10.8570915 59.1107035,10.5444475 58.9137618,10.3043119 C58.7168201,10.0649559 58.4739513,9.94488814 58.1851554,9.94488814 C57.9165985,9.94488814 57.6885198,10.0657356 57.5009192,10.3074305 C57.3117618,10.5491254 57.2183507,10.8539729 57.2183507,11.2227525 C57.2183507,11.6063458 57.3172108,11.9182102 57.5149309,12.1591254 C57.7134294,12.399261 57.9562983,12.5201085 58.2435373,12.5201085 C58.5120942,12.5201085 58.7401729,12.3984814 58.9285519,12.1560068 C59.1161525,11.9135322 59.2095636,11.6094644 59.2095636,11.2422441 M59.9716423,11.161939 C59.9716423,11.7279729 59.7988318,12.1973288 59.4524324,12.5700068 C59.1060329,12.9426847 58.6778988,13.1282441 58.1688085,13.1282441 C57.6822924,13.1282441 57.2759542,12.9574983 56.948237,12.6152271 C56.6205198,12.2737356 56.456272,11.8386847 56.456272,11.3116339 C56.456272,10.7456 56.6298609,10.2762441 56.9754819,9.9035661 C57.3218813,9.53088814 57.7500155,9.34454915 58.2591058,9.34454915 C58.7456219,9.34454915 59.1527385,9.51529492 59.4804557,9.85678644 C59.8081729,10.1974983 59.9716423,10.6325492 59.9716423,11.161939" id="Fill-16"></path>
            <path d="M61.5333977,13.0288373 L60.7518583,13.0288373 C60.7752111,12.4573458 60.7876659,11.8297186 60.7876659,11.1451763 C60.7876659,10.4723288 60.7752111,9.90005763 60.7518583,9.42758305 L61.5333977,9.42758305 C61.5092665,9.89304068 61.4968117,10.4653119 61.4968117,11.1451763 C61.4968117,11.8406339 61.5092665,12.468261 61.5333977,13.0288373" id="Fill-18"></path>
            <path d="M64.7816901,11.2228305 C64.7816901,10.8688644 64.6781595,10.5710339 64.4726551,10.3285593 C64.2663723,10.0860847 63.9518883,9.96445763 63.5284248,9.96445763 C63.4490254,9.96445763 63.3400458,9.97225424 63.2022644,9.98940678 C63.2201682,10.3581864 63.2302878,10.743339 63.2302878,11.1456441 C63.2302878,11.5861525 63.2396289,12.0235424 63.2575327,12.4562542 C63.3766318,12.4804237 63.4972878,12.4921186 63.6163869,12.4921186 C64.0126055,12.4921186 64.306072,12.3697119 64.4960079,12.123339 C64.6867222,11.8769661 64.7816901,11.5767966 64.7816901,11.2228305 M65.5359845,11.104322 C65.5359845,11.6282542 65.3678446,12.0843559 65.0331216,12.4757458 C64.6983985,12.8663559 64.2282294,13.0620508 63.6249496,13.0620508 C63.3525006,13.0620508 62.9772994,13.0511356 62.4977892,13.0285254 C62.5219204,12.4726271 62.5335968,11.8442203 62.5335968,11.1456441 C62.5335968,10.4743559 62.5219204,9.90208475 62.4977892,9.42805085 L62.9811915,9.42805085 C63.060591,9.42805085 63.1781332,9.4249322 63.3353752,9.41947458 C63.4910603,9.41401695 63.5938125,9.41089831 63.6412965,9.41089831 C64.306072,9.41089831 64.7879175,9.5769661 65.0876114,9.90910169 C65.3857484,10.2412373 65.5359845,10.6388644 65.5359845,11.104322" id="Fill-20"></path>
            <path d="M69.5700198,11.4660847 C69.2547574,10.5148983 69.0975155,10.000322 69.0975155,9.92313559 L69.0531452,9.92313559 C69.0531452,9.99486441 68.8904542,10.5094407 68.5642939,11.4660847 L69.5700198,11.4660847 Z M70.8458595,13.0285254 L69.9615679,13.0285254 C69.9615679,12.907678 69.8782764,12.5622881 69.7101364,11.9946949 L68.4342968,11.9946949 C68.2614863,12.5537119 68.175081,12.898322 68.175081,13.0285254 L67.3445009,13.0285254 C67.3445009,12.9567966 67.5585679,12.3673729 67.9890373,11.2586949 C68.4187283,10.1507966 68.6335738,9.54032203 68.6335738,9.42805085 L69.6774426,9.42805085 C69.6774426,9.53330508 69.872049,10.1344237 70.2612618,11.2329661 C70.6512531,12.3307288 70.8458595,12.9295085 70.8458595,13.0285254 L70.8458595,13.0285254 Z" id="Fill-22"></path>
            <path d="M73.3542583,10.5230847 C73.3542583,10.1285763 73.0927073,9.93132203 72.5696052,9.93132203 C72.4388297,9.93132203 72.3010484,9.94535593 72.1554828,9.97264407 C72.1757219,10.3211525 72.1858414,10.715661 72.1858414,11.1561695 C72.2325469,11.1600678 72.2854799,11.1616271 72.3461971,11.1616271 C73.0179784,11.1616271 73.3542583,10.9487797 73.3542583,10.5230847 M74.0665178,10.3710508 C74.0665178,10.8115593 73.9030484,11.1374576 73.5761096,11.3471864 C73.2491708,11.5576949 72.8490601,11.6621695 72.373442,11.6621695 C72.2870367,11.6621695 72.2263195,11.6606102 72.1889551,11.6574915 C72.1889551,12.003661 72.1990746,12.461322 72.2193137,13.0289153 L71.4432233,13.0289153 C71.4673545,12.4964068 71.4790309,11.8687797 71.4790309,11.1452542 C71.4790309,10.4817627 71.4673545,9.90871186 71.4432233,9.42766102 L71.923512,9.42766102 C71.9920134,9.42766102 72.1227889,9.42532203 72.3158385,9.41908475 C72.508888,9.41440678 72.677028,9.41128814 72.8187015,9.41128814 C73.1682146,9.41128814 73.4640163,9.49081356 73.7045499,9.64908475 C73.9466402,9.80813559 74.0665178,10.0482712 74.0665178,10.3710508" id="Fill-24"></path>
            <path d="M76.6663038,10.5230847 C76.6663038,10.1285763 76.4047528,9.93132203 75.8816507,9.93132203 C75.7508752,9.93132203 75.6123155,9.94535593 75.4675283,9.97264407 C75.4877673,10.3211525 75.4978869,10.715661 75.4978869,11.1561695 C75.5445924,11.1600678 75.5975254,11.1616271 75.6582426,11.1616271 C76.3300239,11.1616271 76.6663038,10.9487797 76.6663038,10.5230847 M77.3785633,10.3710508 C77.3785633,10.8115593 77.2150939,11.1374576 76.8881551,11.3471864 C76.5612163,11.5576949 76.1611055,11.6621695 75.6854875,11.6621695 C75.5990822,11.6621695 75.5375866,11.6606102 75.5010006,11.6574915 C75.5010006,12.003661 75.5111201,12.461322 75.5313592,13.0289153 L74.7552688,13.0289153 C74.7786216,12.4964068 74.7910764,11.8687797 74.7910764,11.1452542 C74.7910764,10.4817627 74.7786216,9.90871186 74.7552688,9.42766102 L75.2355574,9.42766102 C75.3040589,9.42766102 75.4348344,9.42532203 75.627884,9.41908475 C75.8209335,9.41440678 75.988295,9.41128814 76.1307469,9.41128814 C76.4802601,9.41128814 76.7760618,9.49081356 77.0165953,9.64908475 C77.2579073,9.80813559 77.3785633,10.0482712 77.3785633,10.3710508" id="Fill-26"></path>
            <path d="M82.0316805,11.2422441 C82.0316805,10.8570915 81.9328204,10.5444475 81.7358787,10.3043119 C81.538937,10.0649559 81.2960682,9.94488814 81.0072723,9.94488814 C80.737937,9.94488814 80.5098583,10.0657356 80.3222577,10.3074305 C80.1338787,10.5491254 80.0396892,10.8539729 80.0396892,11.2227525 C80.0396892,11.6063458 80.1393277,11.9182102 80.3370478,12.1591254 C80.5347679,12.399261 80.7776367,12.5201085 81.0648758,12.5201085 C81.3342111,12.5201085 81.5615114,12.3984814 81.7498904,12.1560068 C81.937491,11.9135322 82.0316805,11.6094644 82.0316805,11.2422441 M82.7937592,11.161939 C82.7937592,11.7279729 82.6209487,12.1973288 82.2745493,12.5700068 C81.9281499,12.9426847 81.5000157,13.1282441 80.9901469,13.1282441 C80.5044093,13.1282441 80.0972927,12.9574983 79.7695755,12.6152271 C79.4418583,12.2737356 79.2783889,11.8386847 79.2783889,11.3116339 C79.2783889,10.7456 79.4511994,10.2762441 79.7975988,9.9035661 C80.1432198,9.53088814 80.5713539,9.34454915 81.0812227,9.34454915 C81.5669603,9.34454915 81.9748554,9.51529492 82.3017942,9.85678644 C82.6302898,10.1974983 82.7937592,10.6325492 82.7937592,11.161939" id="Fill-28"></path>
            <path d="M86.5365076,13.0288373 L85.8546067,13.0288373 C85.8546067,12.9532102 85.6016184,12.5540237 85.0948633,11.831278 C84.5647554,11.0695492 84.2627262,10.5487356 84.1887758,10.2688373 L84.145184,10.2688373 C84.1911111,10.6727017 84.2144638,11.0375831 84.2144638,11.364261 C84.2144638,11.8195831 84.2269187,12.3747017 84.2526067,13.0288373 L83.5730411,13.0288373 C83.6010644,12.4573458 83.6150761,11.8297186 83.6150761,11.1451763 C83.6150761,10.4723288 83.6010644,9.90005763 83.5730411,9.42758305 L84.3935017,9.42758305 C84.3935017,9.52582034 84.620802,9.91565085 85.0754026,10.5978542 C85.5595834,11.322939 85.8382598,11.8141254 85.9090965,12.0721932 L85.9511315,12.0721932 C85.9067612,11.6613119 85.8849653,11.2917525 85.8849653,10.9658542 C85.8849653,10.4660915 85.8717321,9.95307458 85.846044,9.42758305 L86.5365076,9.42758305 C86.5108195,9.88524407 86.4975863,10.4575153 86.4975863,11.1451763 C86.4975863,11.8390746 86.5108195,12.4667017 86.5365076,13.0288373" id="Fill-30"></path>
            <path d="M53.9597052,24.5664949 C53.9597052,26.353478 53.4303758,27.7779186 52.3717169,28.8382576 C51.1698277,30.1013085 49.6051921,30.7328339 47.6785886,30.7328339 C45.8344983,30.7328339 44.266749,30.0927322 42.9768977,28.8109695 C41.6847111,27.5307661 41.0401746,25.9425966 41.0401746,24.0480203 C41.0401746,22.1534441 41.6847111,20.5660542 42.9768977,19.2850712 C44.266749,18.0040881 45.8344983,17.3639864 47.6785886,17.3639864 C48.5940172,17.3639864 49.4681892,17.5417492 50.3018831,17.8996136 C51.1340201,18.2566983 51.8011309,18.7346305 52.3001017,19.3295119 L51.1760551,20.456122 C50.3314633,19.4433424 49.1653816,18.9357831 47.6785886,18.9357831 C46.3334691,18.9357831 45.1712796,19.4098169 44.1896848,20.3578847 C43.2080901,21.3043932 42.7176819,22.535478 42.7176819,24.0480203 C42.7176819,25.5613424 43.2080901,26.7916475 44.1896848,27.7389356 C45.1712796,28.6862237 46.3334691,29.1602576 47.6785886,29.1602576 C49.1062213,29.1602576 50.2956557,28.6831051 51.2476703,27.7303593 C51.8665187,27.1105288 52.2230376,26.2458847 52.3180055,25.1379864 L47.6785886,25.1379864 L47.6785886,23.6012746 L53.8709647,23.6012746 C53.9301251,23.9349695 53.9597052,24.2569695 53.9597052,24.5664949" id="Fill-32"></path>
            <path d="M57.1274306,28.3643017 C57.6925676,28.9420305 58.3612353,29.2312847 59.1349904,29.2312847 C59.9079671,29.2312847 60.5774131,28.9420305 61.1425501,28.3643017 C61.7076872,27.7865729 61.9902557,27.0209458 61.9902557,26.0682 C61.9902557,25.1146746 61.7076872,24.3498271 61.1425501,23.770539 C60.5774131,23.1928102 59.9079671,22.9043356 59.1349904,22.9043356 C58.3612353,22.9043356 57.6925676,23.1928102 57.1274306,23.770539 C56.5615152,24.3498271 56.2797251,25.1146746 56.2797251,26.0682 C56.2797251,27.0209458 56.5615152,27.7865729 57.1274306,28.3643017 M55.9053023,22.7343695 C56.7498942,21.8471153 57.8256784,21.4027085 59.1349904,21.4027085 C60.4435239,21.4027085 61.5200866,21.8471153 62.3654569,22.7343695 C63.2092703,23.6224034 63.631177,24.7334203 63.631177,26.0682 C63.631177,27.4029797 63.2092703,28.5132169 62.3654569,29.4012508 C61.5200866,30.2892847 60.4435239,30.7329119 59.1349904,30.7329119 C57.8256784,30.7329119 56.7498942,30.2892847 55.9053023,29.4012508 C55.0607105,28.5132169 54.6380254,27.4029797 54.6380254,26.0682 C54.6380254,24.7334203 55.0607105,23.6224034 55.9053023,22.7343695" id="Fill-34"></path>
            <path d="M66.6745099,28.3643017 C67.2396469,28.9420305 67.9083146,29.2312847 68.6820697,29.2312847 C69.4550464,29.2312847 70.1244924,28.9420305 70.6896294,28.3643017 C71.2547665,27.7865729 71.537335,27.0209458 71.537335,26.0682 C71.537335,25.1146746 71.2547665,24.3498271 70.6896294,23.770539 C70.1244924,23.1928102 69.4550464,22.9043356 68.6820697,22.9043356 C67.9083146,22.9043356 67.2396469,23.1928102 66.6745099,23.770539 C66.1085945,24.3498271 65.8268044,25.1146746 65.8268044,26.0682 C65.8268044,27.0209458 66.1085945,27.7865729 66.6745099,28.3643017 M65.4523816,22.7343695 C66.2969735,21.8471153 67.3727577,21.4027085 68.6820697,21.4027085 C69.9906032,21.4027085 71.0671659,21.8471153 71.9125362,22.7343695 C72.7563496,23.6224034 73.1782563,24.7334203 73.1782563,26.0682 C73.1782563,27.4029797 72.7563496,28.5132169 71.9125362,29.4012508 C71.0671659,30.2892847 69.9906032,30.7329119 68.6820697,30.7329119 C67.3727577,30.7329119 66.2969735,30.2892847 65.4523816,29.4012508 C64.6077898,28.5132169 64.1851047,27.4029797 64.1851047,26.0682 C64.1851047,24.7334203 64.6077898,23.6224034 65.4523816,22.7343695" id="Fill-36"></path>
            <path d="M78.1578452,29.2315186 C78.9308219,29.2315186 79.5885915,28.9453831 80.1295974,28.3731119 C80.6713816,27.8016203 80.9414953,27.0328746 80.9414953,26.0676542 C80.9414953,25.1024339 80.6713816,24.3344678 80.1295974,23.7621966 C79.5885915,23.1899254 78.9308219,22.9045695 78.1578452,22.9045695 C77.3957665,22.9045695 76.7418889,23.1930441 76.1954341,23.7707729 C75.6474224,24.3492814 75.374195,25.1149085 75.374195,26.0676542 C75.374195,27.0211797 75.6474224,27.7860271 76.1954341,28.3645356 C76.7418889,28.9422644 77.3957665,29.2315186 78.1578452,29.2315186 M78.0332971,34.5932475 C76.997991,34.5932475 76.1533991,34.3344 75.4987431,33.8159254 C74.8440872,33.2974508 74.3746965,32.7041288 74.0890143,32.0375186 L75.5882621,31.4122305 C75.7548452,31.8878237 76.0615449,32.2877898 76.5075828,32.6090102 C76.9528423,32.9310102 77.4611542,33.0916203 78.0332971,33.0916203 C78.9370493,33.0916203 79.6477519,32.821078 80.165405,32.2784339 C80.683058,31.7365695 80.9414953,31.0013492 80.9414953,30.0712136 L80.9414953,29.2315186 L80.8698802,29.2315186 C80.584198,29.6603322 80.180195,30.0181966 79.657093,30.3035525 C79.1332125,30.5896881 78.5439443,30.7331458 77.8900668,30.7331458 C76.7597927,30.7331458 75.7844254,30.2864 74.9631863,29.3921288 C74.1427257,28.4986373 73.7317169,27.390739 73.7317169,26.0676542 C73.7317169,24.7453492 74.1427257,23.6366712 74.9631863,22.7431797 C75.7844254,21.8496881 76.7597927,21.4029424 77.8900668,21.4029424 C78.5439443,21.4029424 79.1332125,21.5464 79.657093,21.8317559 C80.180195,22.1178915 80.584198,22.4749763 80.8698802,22.9045695 L80.9414953,22.9045695 L80.9414953,21.6882983 L82.5123583,21.6882983 L82.5123583,29.9994847 C82.5123583,31.5011119 82.0772184,32.6417559 81.2092738,33.4229763 C80.3413292,34.2026373 79.2818918,34.5932475 78.0332971,34.5932475" id="Fill-38"></path>
            <polygon id="Fill-40" points="84.0647726 30.4470881 85.7056939 30.4470881 85.7056939 17.6497322 84.0647726 17.6497322"></polygon>
            <path d="M93.4861362,25.0134746 C93.4503286,24.5121525 93.220693,24.0365593 92.7987863,23.5835763 C92.3761012,23.1305932 91.7486901,22.9044915 90.9157746,22.9044915 C90.309381,22.9044915 89.7831653,23.0947288 89.3371274,23.4759831 C88.8910895,23.8580169 88.5843898,24.3702542 88.4178067,25.0134746 L93.4861362,25.0134746 Z M91.1306201,30.7330678 C89.8096318,30.7330678 88.7354044,30.2925593 87.9094948,29.4099831 C87.0820283,28.5289661 86.6686843,27.4140508 86.6686843,26.0683559 C86.6686843,24.7928305 87.0703519,23.6974068 87.8736872,22.7789661 C88.676244,21.8620847 89.7029875,21.4028644 90.9515822,21.4028644 C92.2484394,21.4028644 93.2860808,21.8262203 94.0652848,22.6721525 C94.8444889,23.5180847 95.2344802,24.6501525 95.2344802,26.0683559 L95.2173548,26.3716441 L88.3111624,26.3716441 C88.3578679,27.2534407 88.6528913,27.9512373 89.1938971,28.4626949 C89.7356813,28.9749322 90.3685414,29.2314407 91.0948125,29.2314407 C92.2717921,29.2314407 93.0696784,28.7308983 93.4861362,27.7298136 L94.948798,28.3379492 C94.6638942,29.0170339 94.1929466,29.5861864 93.5390691,30.0446271 C92.8851915,30.5030678 92.0818563,30.7330678 91.1306201,30.7330678 L91.1306201,30.7330678 Z" id="Fill-42"></path>
            <path d="M101.694557,23.6909356 L104.442399,23.6909356 C105.132085,23.6909356 105.685545,23.4578169 106.102003,22.993139 C106.518461,22.5292407 106.727079,22.0170034 106.727079,21.4564271 C106.727079,20.8966305 106.518461,20.3843932 106.102003,19.9197153 C105.685545,19.4542576 105.132085,19.2226983 104.442399,19.2226983 L101.694557,19.2226983 L101.694557,23.6909356 Z M101.694557,30.4466983 L100.052857,30.4466983 L100.052857,17.6493424 L104.406592,17.6493424 C105.489382,17.6493424 106.425828,18.0103254 107.217487,18.7307322 C108.008367,19.4519186 108.403808,20.3610034 108.403808,21.4564271 C108.403808,22.5526305 108.008367,23.4617153 107.217487,24.182122 C106.425828,24.9033085 105.489382,25.2635119 104.406592,25.2635119 L101.694557,25.2635119 L101.694557,30.4466983 Z" id="Fill-43"></path>
            <polygon id="Fill-44" points="109.4757 30.4470881 111.116621 30.4470881 111.116621 17.6497322 109.4757 17.6497322"></polygon>
            <path d="M115.61273,29.2315186 C116.290738,29.2315186 116.906473,28.9781288 117.459934,28.4713492 C118.013394,27.9653492 118.288957,27.3665695 118.288957,26.6757898 C117.825794,26.2937559 117.129881,26.1035186 116.201998,26.1035186 C115.404112,26.1035186 114.803945,26.2766034 114.399164,26.6212136 C113.995161,26.9681627 113.792771,27.3720271 113.792771,27.8374847 C113.792771,28.2662983 113.976479,28.6054508 114.346231,28.8565017 C114.714427,29.1059932 115.137112,29.2315186 115.61273,29.2315186 M115.344951,30.7331458 C114.417068,30.7331458 113.640978,30.4641627 113.01668,29.9285356 C112.391604,29.3921288 112.079456,28.6834169 112.079456,27.8016203 C112.079456,26.8480949 112.448429,26.1004 113.186377,25.5585356 C113.923546,25.0166712 114.833526,24.7453492 115.916316,24.7453492 C116.880007,24.7453492 117.671666,24.9238915 118.288957,25.2817559 L118.288957,25.0307051 C118.288957,24.3874847 118.069441,23.8721288 117.629631,23.4854169 C117.189042,23.0979254 116.648036,22.9045695 116.005835,22.9045695 C115.530217,22.9045695 115.09819,23.0176203 114.712091,23.243722 C114.325214,23.4698237 114.060549,23.7801288 113.917319,24.173078 L112.418071,23.5298576 C112.620462,23.0059254 113.019015,22.5201966 113.614511,22.0726712 C114.20845,21.6259254 114.993881,21.4029424 115.970027,21.4029424 C117.088625,21.4029424 118.01573,21.7311797 118.753677,22.3860949 C119.490846,23.0417898 119.85982,23.9649085 119.85982,25.1562305 L119.85982,30.4470102 L118.288957,30.4470102 L118.288957,29.2315186 L118.218899,29.2315186 C117.564243,30.2318237 116.606001,30.7331458 115.344951,30.7331458" id="Fill-45"></path>
            <polygon id="Fill-46" points="123.42968 34.3069559 121.734269 34.3069559 123.769074 29.8925153 120.164185 21.6881424 121.948336 21.6881424 124.553727 27.9807864 124.589534 27.9807864 127.12331 21.6881424 128.907462 21.6881424"></polygon>
            <path d="M10.4188554,23.8310407 C10.4188554,19.743278 10.4196338,15.6562949 10.4165201,11.5685322 C10.4157417,11.0664305 10.5138233,10.6087695 10.868007,10.2298542 C11.0065668,10.0824983 11.1054268,10.0427356 11.2751236,10.2158203 C14.0206309,13.0226 16.773144,15.8223627 19.5248787,18.6229051 C21.3074735,20.4363966 23.0885114,22.2514475 24.878112,24.0571424 C25.0517009,24.2325661 25.066491,24.3245661 24.8827825,24.5077864 C20.5064735,28.8660915 16.1340566,33.2290746 11.7717592,37.6037525 C11.5055376,37.8703966 11.317937,37.8423288 11.0626134,37.6450746 C10.5963364,37.2856508 10.4165201,36.8030407 10.4165201,36.2284305 C10.4172985,33.8075831 10.4134064,31.3867356 10.4118496,28.9658881 C10.4102927,27.2545322 10.4118496,25.5423966 10.4118496,23.8310407 L10.4188554,23.8310407 Z" id="Fill-47"></path>
            <path d="M11.9870717,9.76322712 C12.3210163,9.76010847 12.5561009,9.8575661 12.7826227,9.98465085 C18.3724974,13.1212271 23.9608152,16.2601424 29.5538035,19.3897017 C29.810684,19.533939 29.8060134,19.6142441 29.6075149,19.809939 C28.3565848,21.0418034 27.1173312,22.2838034 25.8772991,23.5258034 C25.7441883,23.6606847 25.6616752,23.7378712 25.4826373,23.5546508 C21.03627,19.0123458 16.5821184,14.4770576 12.1310805,9.93943051 C12.093716,9.90122712 12.0633574,9.85678644 11.9870717,9.76322712" id="Fill-48"></path>
            <path d="M13.2383131,37.4994339 C17.2954676,33.3921797 21.3549574,29.2880441 25.4019924,25.1706542 C25.6534239,24.9157051 25.7709662,24.9500102 25.9959312,25.1846881 C27.0234531,26.256722 28.0673219,27.314722 29.1150828,28.3672644 C29.2995697,28.5528237 29.3143598,28.6284508 29.0644851,28.7656712 C23.8568175,31.6207898 18.653042,34.4844847 13.448488,37.3458407 C13.3620828,37.3934 13.2826834,37.4705864 13.2383131,37.4994339" id="Fill-49"></path>
            <path d="M36.413991,23.9444814 C36.3968656,24.405261 36.1796848,24.7288203 35.8511892,24.9712949 C35.6083204,25.1506169 35.340542,25.2979729 35.0750988,25.4453288 C33.5011222,26.3169898 31.9216965,27.1808542 30.3508335,28.0587525 C30.1383233,28.177261 30.0122184,28.1718034 29.8370726,27.9901424 C28.7184749,26.8331254 27.5897577,25.6846847 26.4555915,24.5440407 C26.2897869,24.3779729 26.2858948,24.2867525 26.4548131,24.1199051 C27.7765799,22.8155322 29.0921192,21.5033627 30.4006528,20.1857356 C30.5555595,20.0305831 30.6653175,20.0134305 30.8575886,20.1225831 C32.4128831,21.0051593 33.9759618,21.8760407 35.5359268,22.7508203 C36.0177723,23.0221424 36.3937519,23.3722102 36.413991,23.9444814" id="Fill-50"></path>
        </g>
    </g>
</svg>
